<?xml version="1.0" encoding="UTF-8"?>
<svg id="Layer_1" data-name="Layer 1" xmlns="http://www.w3.org/2000/svg" version="1.1" viewBox="0 0 48 48">
  <defs>
    <style>
      .cls-1 {
        fill: #dedede;
        stroke-width: 0px;
      }

      .cls-2 {
        fill: none;
        stroke: #dedede;
        stroke-linecap: round;
        stroke-miterlimit: 10;
        stroke-width: 1.5px;
      }
    </style>
  </defs>
  <path class="cls-2" d="M23.6,33.7h0c-4.4,0-8-3.6-8-8v-4c0-4.4,3.6-8,8-8h0c4.4,0,8,3.6,8,8v4c0,4.4-3.6,8-8,8Z"/>
  <line class="cls-2" x1="31.7" y1="23.8" x2="15.7" y2="23.8"/>
  <line class="cls-2" x1="23.7" y1="13.8" x2="23.7" y2="23.8"/>
  <line class="cls-2" x1="15.5" y1="24.3" x2="11.5" y2="24.3"/>
  <line class="cls-2" x1="15.8" y1="18.8" x2="12.4" y2="16.8"/>
  <line class="cls-2" x1="15.9" y1="29.4" x2="13.1" y2="32.2"/>
  <line class="cls-2" x1="31.9" y1="24.3" x2="35.9" y2="24.3"/>
  <line class="cls-2" x1="31.6" y1="18.8" x2="35" y2="16.8"/>
  <line class="cls-2" x1="31.5" y1="29.4" x2="34.3" y2="32.2"/>
  <circle class="cls-1" cx="27.7" cy="19.8" r="1"/>
  <circle class="cls-1" cx="19.7" cy="19.8" r="1"/>
</svg>
