<?xml version="1.0" encoding="UTF-8"?>
<svg id="Layer_1" data-name="Layer 1" xmlns="http://www.w3.org/2000/svg" version="1.1" viewBox="0 0 468 48">
  <defs>
    <style>
      .cls-1 {
        fill: #dedede;
        stroke-width: 0px;
      }
    </style>
  </defs>
  <path class="cls-1" d="M20.7,47c-2.8,0-5.2-.3-7.2-.9-2-.6-3.6-1.7-4.9-3.4s-2.2-3.9-2.8-6.9c-.6-3-.9-7-.9-11.8s.3-8.3.9-11.2c.6-3,1.5-5.3,2.8-6.9,1.3-1.7,3-2.8,5-3.5,2-.7,4.5-1,7.4-1s2,0,3.4.2c1.4.1,2.9.3,4.5.5,1.6.2,3.1.4,4.5.7v1.8c-.7-.1-1.7-.2-3-.4-1.3-.1-2.8-.2-4.4-.3-1.6-.1-3.3-.2-4.9-.2-2.5,0-4.6.3-6.3.9-1.8.6-3.2,1.6-4.3,3.1s-1.9,3.6-2.4,6.2c-.5,2.7-.7,6.1-.7,10.3s.2,8,.7,10.7c.5,2.7,1.3,4.8,2.3,6.3,1.1,1.5,2.4,2.4,4.2,3,1.7.5,3.8.8,6.2.8s5.6,0,7.6-.3c2-.2,3.6-.4,4.9-.6v1.8c-1.4.2-2.8.5-4.3.7-1.5.2-3,.4-4.5.5-1.5.1-2.8.2-3.9.2Z"/>
  <path class="cls-1" d="M56.8,47c-2.8,0-5.3-.3-7.4-.8-2.1-.5-3.8-1.6-5.3-3.1-1.4-1.5-2.5-3.8-3.1-6.8-.7-3-1-7-1-12s.3-9,1-12.1c.7-3.1,1.8-5.4,3.2-7s3.2-2.7,5.3-3.3c2.1-.6,4.5-.9,7.3-.9s5.4.3,7.4.9c2.1.6,3.8,1.7,5.2,3.3,1.4,1.6,2.4,3.9,3.1,7,.7,3.1,1,7.1,1,12.1s-.3,8.9-1,12c-.7,3-1.7,5.3-3.1,6.8-1.4,1.5-3.1,2.5-5.2,3.1-2.1.5-4.6.8-7.4.8ZM56.8,44.7c2.5,0,4.7-.2,6.5-.7s3.3-1.4,4.4-2.8c1.1-1.4,2-3.4,2.5-6.1.6-2.7.8-6.2.8-10.7s-.3-8.4-.9-11.2c-.6-2.8-1.4-4.9-2.6-6.3-1.1-1.4-2.6-2.3-4.4-2.8-1.8-.5-4-.7-6.5-.7s-4.4.2-6.2.7c-1.8.5-3.3,1.4-4.5,2.8-1.2,1.4-2.1,3.5-2.7,6.3-.6,2.8-.9,6.5-.9,11.2s.2,8,.7,10.7c.5,2.7,1.3,4.7,2.4,6.1,1.1,1.4,2.6,2.3,4.4,2.8,1.8.5,4,.7,6.7.7Z"/>
  <path class="cls-1" d="M82.8,46.6V1.6h17.2c1.3,0,2.6.1,3.9.4,1.3.3,2.5.9,3.6,1.7,1.1.9,2,2.1,2.6,3.8.7,1.7,1,3.9,1,6.7s-.3,4.8-.9,6.5c-.6,1.6-1.4,2.9-2.4,3.8-1,.9-2,1.5-3.1,1.9-1.1.3-2.1.6-3.1.6l9.7,19.7h-2.5l-9.6-19.4c-.8,0-1.8,0-3,0-1.2,0-2.5,0-3.8,0s-2.7,0-3.9,0c-1.3,0-2.4,0-3.3-.1v19.8h-2.5ZM85.4,25h14.5c1.2,0,2.3-.1,3.4-.4,1-.3,2-.8,2.8-1.5.8-.8,1.5-1.9,2-3.3.5-1.4.7-3.3.7-5.7s-.3-4-.8-5.4c-.5-1.4-1.2-2.4-2-3.1-.8-.7-1.8-1.2-2.8-1.5-1-.3-2.1-.4-3.3-.4h-14.5v21.2Z"/>
  <path class="cls-1" d="M128.4,46.8c-1,0-2.1,0-3.1-.2s-2-.5-2.8-1c-.9-.5-1.6-1.3-2.1-2.4-.5-1.1-.8-2.5-.8-4.3V9.9c0-1.6.2-2.9.7-4,.5-1.1,1.1-1.9,1.8-2.6.8-.6,1.6-1.1,2.6-1.4,1-.3,2-.4,3-.4,2.2,0,4.3,0,6.4.1,2.1,0,4.1,0,6.1.2,2,0,4,.1,6,.2v1.9h-18.1c-1.8,0-3.3.5-4.3,1.5-1.1,1-1.6,2.6-1.6,4.7v13l21.5.2v1.8l-21.5.2v13c0,1.8.3,3.1.9,4,.6.9,1.4,1.4,2.4,1.7,1,.2,2,.4,3.1.4h17.6v1.9c-1.9,0-3.9.1-5.9.2s-4,0-6,.1c-2,0-4,0-5.9.1Z"/>
  <path class="cls-1" d="M154.8,46.6V1.4h4.9v45.3h-4.9Z"/>
  <path class="cls-1" d="M170,46.6V1.4h4l23.6,36.8V1.4h4.9v45.3h-4l-23.6-36.8v36.8h-4.9Z"/>
  <path class="cls-1" d="M224,47c-.9,0-2,0-3.2,0-1.3,0-2.5-.1-3.8-.2-1.3-.1-2.6-.2-3.7-.3-1.2-.1-2.1-.3-2.9-.4v-3.8c1,0,2.3.2,3.8.2,1.5,0,3.1.1,4.8.2,1.7,0,3.4,0,5,0s3.5-.2,5-.6,2.7-1,3.5-2c.9-1,1.3-2.4,1.3-4.2v-3.1c0-2.1-.5-3.7-1.6-4.8-1.1-1.1-2.8-1.6-5.2-1.6h-4.9c-3.7,0-6.7-.8-8.8-2.5-2.1-1.6-3.2-4.5-3.2-8.5v-2.6c0-4.3,1.1-7.3,3.4-9.1,2.3-1.8,5.5-2.7,9.7-2.7s2.8,0,4.4.2c1.6.1,3.2.3,4.8.5,1.5.2,2.8.4,3.8.6v3.8c-1.8-.2-3.8-.3-6.1-.4-2.3-.1-4.4-.2-6.4-.2s-3.4.2-4.8.6c-1.4.4-2.4,1.2-3.1,2.3-.7,1.1-1.1,2.6-1.1,4.6v2.1c0,2.5.7,4.2,2,5.2,1.3.9,3.1,1.4,5.5,1.4h5.2c2.5,0,4.6.5,6.1,1.4,1.6.9,2.8,2.1,3.6,3.7.8,1.6,1.2,3.4,1.2,5.4v3.5c0,3-.6,5.4-1.9,7s-3,2.8-5.2,3.4c-2.2.6-4.6.9-7.2.9Z"/>
  <path class="cls-1" d="M246.7,46.6V1.4h18c1.3,0,2.7.2,4,.5,1.4.3,2.7,1,3.8,2,1.2,1,2.1,2.5,2.9,4.4.7,1.9,1.1,4.4,1.1,7.5s-.4,5.8-1.1,7.7c-.8,1.9-1.7,3.4-3,4.5-1.2,1-2.5,1.8-3.9,2.1-1.4.4-2.7.6-4.1.6s-1.5,0-2.7,0c-1.2,0-2.5,0-3.8-.2-1.3,0-2.6-.1-3.7-.2-1.1,0-2-.1-2.6-.2v16.5h-4.9ZM251.6,26.3h12.2c1.4,0,2.7-.3,3.9-.9,1.2-.6,2.1-1.7,2.8-3.2.7-1.5,1-3.6,1-6.3s-.3-4.7-1-6.2c-.7-1.5-1.6-2.5-2.7-3-1.1-.6-2.3-.9-3.6-.9h-12.7v20.5Z"/>
  <path class="cls-1" d="M293.5,46.9c-1,0-2,0-3.1-.3-1.1-.2-2.2-.6-3.1-1.1-1-.6-1.8-1.4-2.4-2.6-.6-1.2-.9-2.8-.9-4.8V10.5c0-1.8.3-3.2.8-4.4s1.2-2.1,2.1-2.8,1.8-1.2,2.9-1.5c1.1-.3,2.1-.5,3.2-.5,2.5,0,4.9,0,7.1.2,2.2,0,4.2.1,6.2.2,1.9,0,3.8.1,5.7.2v3.9h-17.7c-1.6,0-2.9.4-3.8,1.3-.9.9-1.4,2.2-1.4,4.1v10.7l20.2.3v3.8l-20.2.3v10.6c0,1.5.3,2.7.8,3.4s1.2,1.3,2.1,1.5c.9.2,1.7.4,2.6.4h17.5v3.9c-1.9.1-3.9.2-5.9.3-2.1,0-4.1.1-6.2.2-2.1,0-4.1,0-6.1.1Z"/>
  <path class="cls-1" d="M334.8,47c-2.7,0-5.1-.3-7.1-.9-2-.6-3.7-1.7-5-3.4-1.3-1.6-2.3-3.9-2.9-7-.6-3-1-7-1-11.9s.3-8.4,1-11.3c.7-3,1.6-5.3,3-7,1.3-1.7,3-2.9,5.1-3.5,2.1-.7,4.5-1,7.3-1s2.7,0,4.2.2c1.6.2,3.1.4,4.6.6,1.5.2,2.9.5,4.1.8v3.6c-.7-.1-1.7-.2-3-.4s-2.7-.2-4.3-.3-3.3-.2-5-.2-4,.2-5.6.7c-1.6.5-2.8,1.4-3.8,2.7s-1.7,3.2-2.1,5.6c-.5,2.4-.7,5.6-.7,9.4s.2,7.1.6,9.6c.4,2.5,1.1,4.4,2.1,5.7.9,1.3,2.2,2.2,3.7,2.7,1.5.5,3.4.7,5.7.7s5.6,0,7.6-.2c2-.2,3.6-.3,4.8-.6v3.7c-1.2.3-2.6.5-4.1.8-1.5.2-3,.4-4.6.5-1.6.1-3.1.2-4.6.2Z"/>
  <path class="cls-1" d="M365.9,46.6V5.8h-14V1.4h32.8v4.4h-14v40.8h-4.9Z"/>
  <path class="cls-1" d="M406.9,47c-2.9,0-5.5-.3-7.7-.8-2.2-.6-4-1.6-5.5-3.2-1.5-1.6-2.5-3.9-3.3-6.9-.7-3-1.1-7-1.1-11.9s.4-8.9,1.1-12c.7-3.1,1.8-5.4,3.3-7,1.5-1.6,3.3-2.7,5.5-3.3,2.2-.6,4.7-.9,7.6-.9s5.5.3,7.7.9c2.2.6,4,1.7,5.5,3.3,1.5,1.6,2.5,4,3.2,7,.7,3.1,1,7,1,12s-.4,8.9-1.1,11.9c-.7,3-1.8,5.3-3.3,6.9-1.5,1.6-3.3,2.6-5.4,3.2-2.2.6-4.7.8-7.7.8ZM406.9,42.6c2.3,0,4.2-.2,5.8-.7,1.6-.5,2.9-1.3,3.9-2.6,1-1.3,1.7-3.1,2.2-5.6.5-2.4.7-5.6.7-9.6s-.2-7.5-.7-10c-.5-2.5-1.2-4.4-2.2-5.7-1-1.3-2.3-2.1-3.9-2.5-1.6-.4-3.5-.6-5.8-.6s-4,.2-5.6.6c-1.6.4-2.9,1.3-3.9,2.5-1,1.3-1.8,3.2-2.3,5.7-.5,2.5-.8,5.8-.8,10s.2,7.2.6,9.6c.4,2.4,1.1,4.3,2.1,5.6,1,1.3,2.3,2.2,3.9,2.6,1.6.5,3.6.7,5.9.7Z"/>
  <path class="cls-1" d="M432.7,46.6V1.4h17.8c1.5,0,2.9.2,4.3.5,1.4.3,2.7,1,3.8,1.9,1.1.9,2,2.3,2.7,4,.7,1.7,1,4,1,6.9s-.3,4.5-.8,6.1c-.5,1.6-1.2,2.8-2.1,3.8-.9.9-1.8,1.6-2.8,2-1,.4-2,.7-2.9.9l9.3,19.2h-5l-8.8-18.5c-.7,0-1.5,0-2.5,0-1,0-2,0-3.1,0s-2.2,0-3.2,0c-1,0-2,0-2.7,0v18.8h-4.9ZM437.6,24.1h12.2c1.1,0,2-.1,3-.4.9-.2,1.7-.7,2.4-1.4.7-.7,1.2-1.6,1.7-2.9.4-1.2.6-2.8.6-4.8s-.2-3.4-.6-4.6c-.4-1.2-1-2.1-1.7-2.7-.7-.6-1.5-1.1-2.4-1.3-.9-.2-1.9-.3-2.9-.3h-12.2v18.3Z"/>
</svg>
